<?xml version="1.0" encoding="iso-8859-1"?>
<!-- Generator: Adobe Illustrator 19.0.0, SVG Export Plug-In . SVG Version: 6.00 Build 0)  -->
<svg xmlns="http://www.w3.org/2000/svg" xmlns:xlink="http://www.w3.org/1999/xlink" version="1.1" id="Capa_1" x="0px" y="0px" viewBox="0 0 489.36 489.36" style="enable-background:new 0 0 489.36 489.36;" xml:space="preserve" width="512px" height="512px">
<g>
	<g>
		<path d="M285.78,318.86h-80.1c-11.4,0-20.8,9.4-20.8,20.8s9.4,20.8,20.8,20.8h80.1c11.4,0,20.8-9.4,20.8-20.8    S297.18,318.86,285.78,318.86z" fill="#757b80"/>
		<path d="M372.08,107.66h-14.8l34.7-49.7c2.5,1.3,5.4,1.8,8.2,1.8c6.2,0,12.5-3.1,16.6-9.4c6.2-9.4,4.2-21.8-5.2-28.1l-26-18.7    c-9.4-6.2-21.8-4.2-28.1,5.2c-5.4,8.1-4.6,18.5,1.8,25.2l-51.3,73.6h-126.7l-50.9-73c6.9-6.7,8-17.5,2.4-25.8    c-6.2-9.4-18.7-11.4-28.1-5.2l-26,18.7c-9.4,7.3-11.4,19.8-5.2,29.1c4.2,5.3,10.5,8.4,16.7,8.4c2.7,0,5.3-0.4,7.7-1.6l34.5,49.4    h-15.1c-45.8,0-82.2,36.4-82.2,82.2v217.4c0,45.8,36.4,82.2,82.2,82.2h255.9c44.7,0,81.1-36.4,81.1-82.2v-217.3    C454.28,144.06,417.88,107.66,372.08,107.66z M413.78,407.26c0,22.9-18.7,41.6-41.6,41.6h-254.9c-22.9,0-41.6-18.7-41.6-41.6    v-217.4c0-22.9,18.7-41.6,41.6-41.6h254.9c22.9,0,41.6,18.7,41.6,41.6V407.26z" fill="#757b80"/>
		<circle cx="332.58" cy="227.26" r="20.5" fill="#757b80"/>
		<circle cx="157.78" cy="227.26" r="20.5" fill="#757b80"/>
	</g>
</g>
<g>
</g>
<g>
</g>
<g>
</g>
<g>
</g>
<g>
</g>
<g>
</g>
<g>
</g>
<g>
</g>
<g>
</g>
<g>
</g>
<g>
</g>
<g>
</g>
<g>
</g>
<g>
</g>
<g>
</g>
</svg>
